<?xml version="1.0" encoding="iso-8859-1"?>
<!-- Generator: Adobe Illustrator 19.0.0, SVG Export Plug-In . SVG Version: 6.00 Build 0)  -->
<svg version="1.1" id="Layer_1" xmlns="http://www.w3.org/2000/svg" xmlns:xlink="http://www.w3.org/1999/xlink" x="0px" y="0px"
	 viewBox="0 0 512 512" style="enable-background:new 0 0 512 512;" xml:space="preserve">
<g>
	<rect x="148.211" y="397.474" style="fill:#1E2E3B;" width="215.579" height="53.895"/>
	<rect x="222.316" y="249.263" style="fill:#1E2E3B;" width="67.368" height="53.895"/>
</g>
<path style="fill:#FF5023;" d="M296.421,101.053c0-22.325-18.096-40.421-40.421-40.421s-40.421,18.097-40.421,40.421
	c0,14.96,8.133,28.01,20.211,35.001v32.368h40.421v-32.368C288.288,129.063,296.421,116.012,296.421,101.053z"/>
<path style="fill:#BF3C1A;" d="M256,60.632v107.789h20.211v-32.368c12.078-6.99,20.211-20.041,20.211-35.001
	C296.421,78.728,278.325,60.632,256,60.632z"/>
<path style="fill:#BFE4F8;" d="M417.684,309.895h-40.421c0-66.865-54.399-121.263-121.263-121.263S134.737,243.03,134.737,309.895
	H94.316c0-89.154,72.53-161.684,161.684-161.684S417.684,220.741,417.684,309.895z"/>
<g>
	<path style="fill:#93C7EF;" d="M256,148.211v40.421c66.865,0,121.263,54.399,121.263,121.263h40.421
		C417.684,220.741,345.153,148.211,256,148.211z"/>
	<path style="fill:#93C7EF;" d="M471.579,357.053c0-8.843,0-18.549,0-26.947c0-22.323-18.097-40.421-40.421-40.421H80.842
		c-22.325,0-40.421,18.098-40.421,40.421c0,8.398,0,18.105,0,26.947L0,410.947L471.579,357.053z"/>
</g>
<g>
	<path style="fill:#5A8BB0;" d="M256,410.947h256l-40.421-53.895c0-8.843,0-18.549,0-26.947c0-22.323-18.097-40.421-40.421-40.421
		H256V410.947z"/>
	<polygon style="fill:#5A8BB0;" points="471.579,357.053 40.421,357.053 0,410.947 256,410.947 	"/>
</g>
<polygon style="fill:#3C5D76;" points="471.579,357.053 256,357.053 256,410.947 512,410.947 "/>
<g>
	<circle style="fill:#FFDA44;" cx="119.579" cy="357.053" r="20.211"/>
	<circle style="fill:#FFDA44;" cx="210.526" cy="357.053" r="20.211"/>
</g>
<g>
	<circle style="fill:#FF9811;" cx="301.474" cy="357.053" r="20.211"/>
	<circle style="fill:#FF9811;" cx="392.421" cy="357.053" r="20.211"/>
</g>
<g>
</g>
<g>
</g>
<g>
</g>
<g>
</g>
<g>
</g>
<g>
</g>
<g>
</g>
<g>
</g>
<g>
</g>
<g>
</g>
<g>
</g>
<g>
</g>
<g>
</g>
<g>
</g>
<g>
</g>
</svg>
