<?xml version="1.0" encoding="iso-8859-1"?>
<!-- Generator: Adobe Illustrator 19.0.0, SVG Export Plug-In . SVG Version: 6.00 Build 0)  -->
<svg version="1.1" id="Layer_1" xmlns="http://www.w3.org/2000/svg" xmlns:xlink="http://www.w3.org/1999/xlink" x="0px" y="0px"
	 viewBox="0 0 512 512" style="enable-background:new 0 0 512 512;" xml:space="preserve">
<g transform="translate(1)">
	<path style="fill:#FFDD09;" d="M161.56,429.227l44.373-9.387"/>
	<path style="fill:#FD9808;" d="M501.187,372.053C479.853,339.627,300.653,58.88,289.56,36.693
		c-16.213-30.72-34.133-28.16-34.133-28.16s-17.92-2.56-34.133,28.16C210.2,58.88,31,339.627,9.667,372.053
		c-0.853,2.56-1.707,5.12-1.707,6.827v65.707c0,7.68,7.68,13.653,15.36,12.8l87.04-17.92l145.067-21.333l145.067,21.333l87.04,17.92
		c7.68,1.707,15.36-4.267,15.36-12.8V378.88C502.893,377.173,502.04,374.613,501.187,372.053"/>
	<path style="fill:#FFDD09;" d="M475.587,372.053C455.96,339.627,285.293,58.88,275.053,36.693
		c-15.36-30.72-32.427-28.16-32.427-28.16s-17.067-2.56-32.427,28.16C199.96,58.88,29.293,339.627,9.667,372.053
		c-0.853,2.56-1.707,5.12-1.707,6.827v65.707c0,7.68,6.827,13.653,14.507,12.8l82.773-17.92l137.387-21.333l137.387,21.333
		l82.773,17.92c7.68,1.707,14.507-4.267,14.507-12.8V378.88C477.293,377.173,476.44,374.613,475.587,372.053"/>
	<path style="fill:#FFFFFF;" d="M12.227,372.053C32.707,339.627,212.76,58.88,223.853,36.693c15.36-30.72,34.133-28.16,34.133-28.16
		s2.56,0,6.827,0.853c-5.973,1.707-16.213,8.533-25.6,27.307c-11.947,22.187-181.76,302.933-202.24,335.36
		c-0.853,1.707-1.707,4.267-1.707,6.827v65.707c0,3.413,1.707,6.827,4.267,9.387l-14.507,3.413c-7.68,1.707-15.36-4.267-15.36-12.8
		V378.88C9.667,377.173,10.52,374.613,12.227,372.053"/>
	<path style="fill:#FFDD09;" d="M304.92,419.84l44.373,9.387"/>
	<g>
		<path style="fill:#1CD759;" d="M110.36,307.2v145.067v8.533c0,5.12,3.413,8.533,8.533,8.533h34.133
			c5.12,0,8.533-3.413,8.533-8.533v-8.533V307.2c0-14.507-11.093-25.6-25.6-25.6l0,0C121.453,281.6,110.36,292.693,110.36,307.2"/>
		<path style="fill:#1CD759;" d="M349.293,307.2v145.067v8.533c0,5.12,3.413,8.533,8.533,8.533h34.133
			c5.12,0,8.533-3.413,8.533-8.533v-8.533V307.2c0-14.507-11.093-25.6-25.6-25.6l0,0C360.387,281.6,349.293,292.693,349.293,307.2"
			/>
		<path style="fill:#1CD759;" d="M292.12,452.267h-73.387c-7.68,0-14.507-6.827-13.653-14.507l16.213-318.293L238.36,102.4h34.133
			l17.067,17.067l16.213,318.293C306.627,445.44,299.8,452.267,292.12,452.267"/>
	</g>
	<path d="M153.027,477.867h-34.133c-9.387,0-17.067-7.68-17.067-17.067V307.2c0-18.773,15.36-34.133,34.133-34.133
		s34.133,15.36,34.133,34.133v153.6C170.093,470.187,162.413,477.867,153.027,477.867z M135.96,290.133
		c-9.387,0-17.067,7.68-17.067,17.067v153.6h34.133V307.2C153.027,297.813,145.347,290.133,135.96,290.133z"/>
	<path d="M161.56,341.333h-51.2c-5.12,0-8.533-3.413-8.533-8.533s3.413-8.533,8.533-8.533h51.2c5.12,0,8.533,3.413,8.533,8.533
		S166.68,341.333,161.56,341.333z"/>
	<path d="M135.96,512c-5.12,0-8.533-3.413-8.533-8.533v-34.133c0-5.12,3.413-8.533,8.533-8.533c5.12,0,8.533,3.413,8.533,8.533
		v34.133C144.493,508.587,141.08,512,135.96,512z"/>
	<path d="M144.493,366.933c0,5.12-3.413,8.533-8.533,8.533c-5.12,0-8.533-3.413-8.533-8.533s3.413-8.533,8.533-8.533
		C141.08,358.4,144.493,361.813,144.493,366.933"/>
	<path d="M144.493,401.067c0,5.12-3.413,8.533-8.533,8.533c-5.12,0-8.533-3.413-8.533-8.533s3.413-8.533,8.533-8.533
		C141.08,392.533,144.493,395.947,144.493,401.067"/>
	<path d="M144.493,435.2c0,5.12-3.413,8.533-8.533,8.533c-5.12,0-8.533-3.413-8.533-8.533c0-5.12,3.413-8.533,8.533-8.533
		C141.08,426.667,144.493,430.08,144.493,435.2"/>
	<path d="M263.96,247.467c0,5.12-3.413,8.533-8.533,8.533c-5.12,0-8.533-3.413-8.533-8.533c0-5.12,3.413-8.533,8.533-8.533
		C260.547,238.933,263.96,242.347,263.96,247.467"/>
	<path d="M263.96,281.6c0,5.12-3.413,8.533-8.533,8.533c-5.12,0-8.533-3.413-8.533-8.533c0-5.12,3.413-8.533,8.533-8.533
		C260.547,273.067,263.96,276.48,263.96,281.6"/>
	<path d="M263.96,315.733c0,5.12-3.413,8.533-8.533,8.533c-5.12,0-8.533-3.413-8.533-8.533c0-5.12,3.413-8.533,8.533-8.533
		C260.547,307.2,263.96,310.613,263.96,315.733"/>
	<path d="M391.96,477.867h-34.133c-9.387,0-17.067-7.68-17.067-17.067V307.2c0-18.773,15.36-34.133,34.133-34.133
		s34.133,15.36,34.133,34.133v153.6C409.027,470.187,401.347,477.867,391.96,477.867z M374.893,290.133
		c-9.387,0-17.067,7.68-17.067,17.067v153.6h34.133V307.2C391.96,297.813,384.28,290.133,374.893,290.133z"/>
	<path d="M400.493,341.333h-51.2c-5.12,0-8.533-3.413-8.533-8.533s3.413-8.533,8.533-8.533h51.2c5.12,0,8.533,3.413,8.533,8.533
		S405.613,341.333,400.493,341.333z"/>
	<path d="M374.893,512c-5.12,0-8.533-3.413-8.533-8.533v-34.133c0-5.12,3.413-8.533,8.533-8.533s8.533,3.413,8.533,8.533v34.133
		C383.427,508.587,380.013,512,374.893,512z"/>
	<path d="M383.427,366.933c0,5.12-3.413,8.533-8.533,8.533s-8.533-3.413-8.533-8.533s3.413-8.533,8.533-8.533
		S383.427,361.813,383.427,366.933"/>
	<path d="M383.427,401.067c0,5.12-3.413,8.533-8.533,8.533s-8.533-3.413-8.533-8.533s3.413-8.533,8.533-8.533
		S383.427,395.947,383.427,401.067"/>
	<path d="M383.427,435.2c0,5.12-3.413,8.533-8.533,8.533s-8.533-3.413-8.533-8.533c0-5.12,3.413-8.533,8.533-8.533
		S383.427,430.08,383.427,435.2"/>
	<path d="M292.12,460.8h-73.387c-5.973,0-11.947-2.56-16.213-6.827c-4.267-4.267-6.827-10.24-5.973-17.067l16.213-320.853
		l22.187-22.187h40.96l22.187,22.187l16.213,321.707c0,5.973-1.707,11.947-5.973,16.213C304.067,458.24,298.093,460.8,292.12,460.8z
		 M229.827,122.88l-16.213,314.88c0,1.707,0.853,2.56,1.707,4.267c0.853,0.853,2.56,1.707,4.267,1.707h73.387
		c1.707,0,2.56-0.853,4.267-1.707c0.853-0.853,1.707-2.56,1.707-4.267l-17.92-314.88l-11.947-11.947h-27.307L229.827,122.88z"/>
	<path d="M20.76,466.773c-5.12,0-9.387-1.707-13.653-5.12c-5.12-4.267-7.68-10.24-7.68-16.213v-65.707
		c0-4.267,0.853-7.68,3.413-11.093c97.28-152.747,203.093-320,211.627-335.36C229.827,0.853,250.307,0,255.427,0
		c5.12,0,25.6,0.853,40.96,33.28l0,0c6.827,13.653,85.333,138.24,209.92,332.8l0.853,1.707c2.56,3.413,3.413,7.68,3.413,11.093
		v65.707c0,6.827-2.56,12.8-7.68,16.213c-5.12,4.267-11.093,5.973-17.92,4.267l-93.867-19.627V307.2c0-5.12-1.707-9.387-5.12-12.8
		c-2.56-2.56-7.68-4.267-11.947-4.267c-8.533,0.853-16.213,8.533-16.213,18.773v130.56l-56.32-12.8l-20.48-303.787l-11.947-11.947
		h-27.307l-11.947,11.947l-15.36,303.787l-61.44,12.8V307.2c0-5.12-1.707-9.387-5.12-12.8c-3.413-2.56-7.68-4.267-12.8-4.267
		c-8.533,0.853-16.213,8.533-16.213,18.773v138.24L25.027,465.92C23.32,465.92,22.467,466.773,20.76,466.773z M253.72,17.067
		c-0.853,0-12.8,0.853-24.747,23.893c-10.24,19.627-151.04,241.493-211.627,335.36c-0.853,1.707-0.853,1.707-0.853,2.56v65.707
		c0,1.707,0.853,2.56,1.707,3.413c0.853,0.853,1.707,0.853,3.413,0.853l80.213-16.213V308.907c0-18.773,14.507-34.987,32.427-35.84
		c9.387-0.853,18.773,2.56,25.6,9.387s10.24,15.36,10.24,24.747v110.933l27.307-5.973l15.36-296.107l22.187-22.187h40.96
		l22.187,22.187l15.36,296.96l27.307,5.12V308.907c0-18.773,14.507-34.987,32.427-35.84c9.387-0.853,18.773,2.56,25.6,9.387
		s10.24,15.36,10.24,24.747v125.44l80.213,16.213c1.707,0,2.56,0,3.413-0.853c0.853-0.853,1.707-1.707,1.707-3.413V378.88
		c0-0.853,0-1.707-0.853-2.56l-0.853-0.853C432.92,281.6,291.267,60.587,281.88,40.96c-11.947-23.893-24.747-23.893-25.6-23.893
		h-0.853H253.72L253.72,17.067C254.573,17.067,254.573,17.067,253.72,17.067z"/>
	<path d="M255.427,512c-5.12,0-8.533-3.413-8.533-8.533v-128c0-5.12,3.413-8.533,8.533-8.533c5.12,0,8.533,3.413,8.533,8.533v128
		C263.96,508.587,260.547,512,255.427,512z"/>
	<path d="M255.427,187.733c-5.12,0-8.533-3.413-8.533-8.533v-76.8c0-5.12,3.413-8.533,8.533-8.533c5.12,0,8.533,3.413,8.533,8.533
		v76.8C263.96,184.32,260.547,187.733,255.427,187.733z"/>
	<path d="M301.507,187.733h-92.16l3.413-71.68l22.187-22.187h40.96l22.187,22.187L301.507,187.733z M227.267,170.667h56.32
		l-2.56-47.787l-11.947-11.947h-27.307l-11.947,11.947L227.267,170.667z"/>
</g>
<g>
</g>
<g>
</g>
<g>
</g>
<g>
</g>
<g>
</g>
<g>
</g>
<g>
</g>
<g>
</g>
<g>
</g>
<g>
</g>
<g>
</g>
<g>
</g>
<g>
</g>
<g>
</g>
<g>
</g>
</svg>
